<svg width="21" height="22" viewBox="0 0 21 22" fill="none" xmlns="http://www.w3.org/2000/svg">
<path d="M16.725 20.2637L4.24211 20.1729C3.37027 20.1558 2.5389 19.6476 1.9309 18.7599C1.32289 17.8723 0.988053 16.678 1.00004 15.4397L1.03072 1.00014" stroke="white" stroke-width="2" stroke-linecap="round" stroke-linejoin="round"/>
<mask id="mask0_1607_138" style="mask-type:alpha" maskUnits="userSpaceOnUse" x="4" y="0" width="17" height="15">
<path d="M15.915 0.916656H20.0156L20.04 0.920563C20.0504 0.923614 20.0625 0.929306 20.0771 0.938141L20.082 0.941071C20.1457 0.978641 20.2429 1.08284 20.3008 1.28091L20.3018 1.28384C20.3158 1.33058 20.3264 1.3802 20.334 1.4313L20.3457 1.58853V7.42056C20.3457 7.64375 20.2822 7.83664 20.1963 7.95865C20.1122 8.07793 20.0423 8.08843 20.0244 8.08853C20.0069 8.08853 19.9361 8.07873 19.8516 7.95865C19.7657 7.83664 19.7021 7.64375 19.7021 7.42056V2.81705L18.793 4.11002L13.623 11.4645V11.4655C13.5817 11.5248 13.541 11.5588 13.5107 11.5768C13.4821 11.5938 13.4616 11.5973 13.4492 11.5973C13.4368 11.5973 13.4165 11.5938 13.3877 11.5768C13.3574 11.5589 13.3169 11.5248 13.2754 11.4655L13.2744 11.4645L10.5703 7.61197L10.1611 7.02896L9.75195 7.61197L5.4043 13.7985L5.40332 13.8004C5.36192 13.8596 5.32124 13.8939 5.29102 13.9118C5.26277 13.9284 5.24285 13.9312 5.23047 13.9313C5.21812 13.9313 5.19757 13.9286 5.16895 13.9118C5.13872 13.8939 5.09804 13.8596 5.05664 13.8004L5.05371 13.7965C5.01238 13.7382 4.97409 13.6607 4.94629 13.5661C4.91849 13.4713 4.90332 13.3658 4.90332 13.2575C4.90332 13.1491 4.91849 13.0436 4.94629 12.9489C4.97409 12.8542 5.01238 12.7767 5.05371 12.7184L5.05566 12.7165L9.98633 5.71255L9.9873 5.7106C10.0287 5.6513 10.0693 5.61723 10.0996 5.59927C10.1283 5.58231 10.1487 5.57978 10.1611 5.57974C10.1735 5.57974 10.1939 5.58228 10.2227 5.59927C10.2529 5.61718 10.2935 5.65128 10.335 5.7106L10.3359 5.71158L13.04 9.56412L13.4482 10.1461L13.8574 9.56509L18.4521 3.03873L19.0068 2.25162H15.915C15.8976 2.25162 15.8268 2.24188 15.7422 2.12173C15.6563 1.99973 15.5928 1.80683 15.5928 1.58365C15.5928 1.3607 15.6564 1.16849 15.7422 1.04654C15.8268 0.926364 15.8976 0.916656 15.915 0.916656Z" fill="black" stroke="white"/>
</mask>
<g mask="url(#mask0_1607_138)">
<path d="M17.5406 5.17024C18.1032 6.46635 17.9885 8.25455 17.2389 10.194C16.4856 12.1432 15.1124 14.1737 13.2835 15.8113C11.4569 17.4467 9.55847 18.3218 7.97689 18.4374C6.39038 18.5533 5.18108 17.9085 4.60503 16.6107C4.02878 15.3124 4.14026 13.5118 4.89514 11.5586C5.64852 9.60955 7.02121 7.57941 8.84988 5.94195C12.5144 2.66071 16.1234 2.85261 17.5406 5.17024Z" fill="white" stroke="white"/>
</g>
</svg>
