<svg width="32" height="29" viewBox="0 0 32 29" fill="none" xmlns="http://www.w3.org/2000/svg">
<path d="M26.1818 8.7V5.8H23.2727V2.9H26.1818V0H29.0909V2.9H32V5.8H29.0909V8.7H26.1818ZM14.5455 23.925C16.3636 23.925 17.9093 23.2909 19.1825 22.0226C20.4558 20.7543 21.0919 19.2135 21.0909 17.4C21.0899 15.5865 20.4538 14.0461 19.1825 12.7788C17.9113 11.5115 16.3656 10.8769 14.5455 10.875C12.7253 10.8731 11.1801 11.5077 9.90982 12.7788C8.63952 14.05 8.00291 15.5904 8 17.4C7.99709 19.2096 8.6337 20.7505 9.90982 22.0226C11.1859 23.2947 12.7312 23.9289 14.5455 23.925ZM14.5455 21.025C13.5273 21.025 12.6667 20.6746 11.9636 19.9737C11.2606 19.2729 10.9091 18.415 10.9091 17.4C10.9091 16.385 11.2606 15.5271 11.9636 14.8262C12.6667 14.1254 13.5273 13.775 14.5455 13.775C15.5636 13.775 16.4242 14.1254 17.1273 14.8262C17.8303 15.5271 18.1818 16.385 18.1818 17.4C18.1818 18.415 17.8303 19.2729 17.1273 19.9737C16.4242 20.6746 15.5636 21.025 14.5455 21.025ZM2.90909 29C2.10909 29 1.42448 28.7163 0.855273 28.1488C0.286061 27.5814 0.000969697 26.8985 0 26.1V8.7C0 7.9025 0.285091 7.22003 0.855273 6.6526C1.42545 6.08517 2.11006 5.80097 2.90909 5.8H7.49091L10.1818 2.9H20.3636V8.7H23.2727V11.6H29.0909V26.1C29.0909 26.8975 28.8063 27.5804 28.2371 28.1488C27.6679 28.7172 26.9828 29.001 26.1818 29H2.90909Z" fill="black"/>
</svg>
