<svg width="20" height="20" viewBox="0 0 20 20" fill="none" xmlns="http://www.w3.org/2000/svg">
<path d="M11.1111 5.55555V1.11111C11.1111 0.796296 11.2178 0.532593 11.4311 0.32C11.6444 0.107408 11.9081 0.000740741 12.2222 0H18.8889C19.2037 0 19.4678 0.106667 19.6811 0.32C19.8944 0.533333 20.0007 0.797037 20 1.11111V5.55555C20 5.87037 19.8933 6.13444 19.68 6.34778C19.4667 6.56111 19.203 6.66741 18.8889 6.66667H12.2222C11.9074 6.66667 11.6437 6.56 11.4311 6.34667C11.2185 6.13333 11.1118 5.86963 11.1111 5.55555ZM0 10V1.11111C0 0.796296 0.106667 0.532593 0.32 0.32C0.533333 0.107408 0.797037 0.000740741 1.11111 0H7.77778C8.09259 0 8.35667 0.106667 8.57 0.32C8.78333 0.533333 8.88963 0.797037 8.88889 1.11111V10C8.88889 10.3148 8.78222 10.5789 8.56889 10.7922C8.35555 11.0056 8.09185 11.1118 7.77778 11.1111H1.11111C0.796296 11.1111 0.532593 11.0044 0.32 10.7911C0.107408 10.5778 0.000740741 10.3141 0 10ZM11.1111 18.8889V10C11.1111 9.68518 11.2178 9.42148 11.4311 9.20889C11.6444 8.99629 11.9081 8.88963 12.2222 8.88889H18.8889C19.2037 8.88889 19.4678 8.99555 19.6811 9.20889C19.8944 9.42222 20.0007 9.68592 20 10V18.8889C20 19.2037 19.8933 19.4678 19.68 19.6811C19.4667 19.8944 19.203 20.0007 18.8889 20H12.2222C11.9074 20 11.6437 19.8933 11.4311 19.68C11.2185 19.4667 11.1118 19.203 11.1111 18.8889ZM0 18.8889V14.4444C0 14.1296 0.106667 13.8659 0.32 13.6533C0.533333 13.4407 0.797037 13.3341 1.11111 13.3333H7.77778C8.09259 13.3333 8.35667 13.44 8.57 13.6533C8.78333 13.8667 8.88963 14.1304 8.88889 14.4444V18.8889C8.88889 19.2037 8.78222 19.4678 8.56889 19.6811C8.35555 19.8944 8.09185 20.0007 7.77778 20H1.11111C0.796296 20 0.532593 19.8933 0.32 19.68C0.107408 19.4667 0.000740741 19.203 0 18.8889ZM2.22222 8.88889H6.66667V2.22222H2.22222V8.88889ZM13.3333 17.7778H17.7778V11.1111H13.3333V17.7778ZM13.3333 4.44444H17.7778V2.22222H13.3333V4.44444ZM2.22222 17.7778H6.66667V15.5556H2.22222V17.7778Z" fill="white"/>
</svg>
