<svg width="29" height="29" viewBox="0 0 29 29" fill="none" xmlns="http://www.w3.org/2000/svg">
<path d="M22.2031 0H6.79688C3.04306 0 0 3.04306 0 6.79688V22.2031C0 25.9569 3.04306 29 6.79688 29H22.2031C25.9569 29 29 25.9569 29 22.2031V6.79688C29 3.04306 25.9569 0 22.2031 0Z" fill="white"/>
<path d="M22.2031 0H6.79688C3.04306 0 0 3.04306 0 6.79688V22.2031C0 25.9569 3.04306 29 6.79688 29H22.2031C25.9569 29 29 25.9569 29 22.2031V6.79688C29 3.04306 25.9569 0 22.2031 0Z" fill="#1D9BF0"/>
<path d="M22.6078 10.3551C22.6202 10.5349 22.6202 10.7147 22.6202 10.8962C22.6202 16.424 18.4121 22.7992 10.7172 22.7992V22.7958C8.44401 22.7991 6.2179 22.1481 4.30469 20.9204C4.63539 20.9601 4.96731 20.9802 5.30043 20.9808C7.18453 20.9824 9.01443 20.3504 10.4961 19.1866C9.62312 19.17 8.77716 18.8811 8.07643 18.3602C7.3757 17.8394 6.85522 17.1126 6.58776 16.2815C7.21451 16.4023 7.86066 16.3777 8.47638 16.2094C6.52477 15.8151 5.12065 14.1003 5.12065 12.1089V12.0558C5.70245 12.3799 6.35358 12.5595 7.01925 12.5794C5.18114 11.3509 4.61451 8.90549 5.72444 6.99353C6.77464 8.28602 8.08502 9.34311 9.57044 10.0961C11.0559 10.8491 12.6831 11.2811 14.3464 11.3641C14.1806 10.6503 14.205 9.90541 14.4174 9.20399C14.6298 8.50257 15.0226 7.86921 15.5566 7.36724C17.2415 5.78334 19.8915 5.86457 21.4754 7.5486C22.4122 7.36365 23.3107 7.0202 24.132 6.53304C23.8197 7.50167 23.1661 8.32388 22.293 8.84669C23.1222 8.7489 23.9321 8.52691 24.6953 8.18819C24.1339 9.029 23.427 9.76275 22.6078 10.3551Z" fill="white"/>
</svg>
