<svg width="29" height="29" viewBox="0 0 29 29" fill="none" xmlns="http://www.w3.org/2000/svg">
<path d="M0.612285 14.3216C0.611605 16.7582 1.25323 19.1373 2.47327 21.2343L0.495605 28.3991L7.88517 26.4766C9.92903 27.5806 12.219 28.1591 14.5461 28.1592H14.5522C22.2344 28.1592 28.4879 21.9565 28.4911 14.3325C28.4926 10.6382 27.044 7.16426 24.412 4.55066C21.7805 1.93729 18.2806 0.497292 14.5517 0.495605C6.86858 0.495605 0.61557 6.69801 0.612398 14.3216" fill="url(#paint0_linear_1607_102)"/>
<path d="M0.121211 14.322C0.120418 16.8462 0.785039 19.3104 2.04858 21.4825L0 28.9041L7.65453 26.9127C9.7636 28.0537 12.1382 28.6553 14.5545 28.6562H14.5607C22.5185 28.6562 28.9966 22.2303 29 14.3334C29.0014 10.5063 27.5006 6.90751 24.7746 4.20028C22.0483 1.49339 18.4233 0.00157364 14.5607 0C6.60158 0 0.124383 6.42496 0.121211 14.322ZM4.67976 21.1084L4.39395 20.6582C3.19249 18.7627 2.55834 16.5722 2.55925 14.3229C2.56174 7.75907 7.94532 2.41892 14.5653 2.41892C17.7711 2.42026 20.7839 3.6603 23.05 5.91016C25.316 8.16024 26.5629 11.1513 26.5621 14.3325C26.5591 20.8963 21.1754 26.2371 14.5607 26.2371H14.556C12.4021 26.236 10.2898 25.6621 8.44761 24.5775L8.00921 24.3195L3.46686 25.5012L4.67976 21.1084Z" fill="url(#paint1_linear_1607_102)"/>
<path d="M10.9498 8.33001C10.6795 7.73394 10.395 7.72191 10.138 7.71145C9.92752 7.70246 9.68691 7.70314 9.44652 7.70314C9.20591 7.70314 8.81498 7.79295 8.48454 8.15095C8.15376 8.50929 7.22168 9.37524 7.22168 11.1365C7.22168 12.8977 8.51456 14.6 8.69479 14.839C8.87525 15.0777 11.1907 18.8077 14.8579 20.2426C17.9056 21.4351 18.5258 21.1979 19.1872 21.1381C19.8488 21.0785 21.3219 20.2724 21.6224 19.4364C21.9232 18.6006 21.9232 17.8842 21.833 17.7344C21.7429 17.5853 21.5023 17.4957 21.1415 17.3167C20.7807 17.1378 19.0068 16.2716 18.6761 16.1521C18.3453 16.0328 18.1048 15.9732 17.8642 16.3316C17.6236 16.6895 16.9327 17.4957 16.7221 17.7344C16.5118 17.9737 16.3012 18.0035 15.9405 17.8245C15.5795 17.6449 14.4175 17.2673 13.039 16.0478C11.9665 15.0989 11.2424 13.9271 11.0319 13.5687C10.8214 13.2108 11.0094 13.0168 11.1903 12.8384C11.3524 12.678 11.5512 12.4204 11.7317 12.2114C11.9116 12.0023 11.9717 11.8532 12.092 11.6144C12.2124 11.3755 12.1521 11.1664 12.0621 10.9873C11.9717 10.8083 11.2706 9.03781 10.9498 8.33001Z" fill="white"/>
<defs>
<linearGradient id="paint0_linear_1607_102" x1="1400.27" y1="2790.85" x2="1400.27" y2="0.495605" gradientUnits="userSpaceOnUse">
<stop stop-color="#1FAF38"/>
<stop offset="1" stop-color="#60D669"/>
</linearGradient>
<linearGradient id="paint1_linear_1607_102" x1="1450" y1="2890.41" x2="1450" y2="0" gradientUnits="userSpaceOnUse">
<stop stop-color="#F9F9F9"/>
<stop offset="1" stop-color="white"/>
</linearGradient>
</defs>
</svg>
